<mxfile host="app.diagrams.net" modified="2020-12-11T02:04:03.310Z" agent="5.0 (Windows)" etag="I8HOjXp4LwpQdQwuFdBq" version="14.0.1" type="github">
  <diagram name="Page-1" id="03018318-947c-dd8e-b7a3-06fadd420f32">
    <mxGraphModel dx="2340" dy="684" grid="1" gridSize="10" guides="1" tooltips="1" connect="1" arrows="1" fold="1" page="1" pageScale="1" pageWidth="1100" pageHeight="850" background="#ffffff" math="0" shadow="0">
      <root>
        <mxCell id="0" />
        <mxCell id="1" parent="0" />
        <mxCell id="677b7b8949515195-2" value="LOGO" style="whiteSpace=wrap;html=1;rounded=0;shadow=0;labelBackgroundColor=none;strokeWidth=1;fontFamily=Verdana;fontSize=28;align=center;comic=1;" parent="1" vertex="1">
          <mxGeometry x="35" y="30" width="190" height="50" as="geometry" />
        </mxCell>
        <mxCell id="677b7b8949515195-3" value="Escriba palabras clave del blog que busca" style="strokeWidth=1;shadow=0;dashed=0;align=center;html=1;shape=mxgraph.mockup.forms.searchBox;strokeColor=#999999;mainText=;strokeColor2=#008cff;fontColor=#666666;fontSize=17;align=left;spacingLeft=3;rounded=0;labelBackgroundColor=none;comic=1;" parent="1" vertex="1">
          <mxGeometry x="450" y="30" width="350" height="30" as="geometry" />
        </mxCell>
        <mxCell id="677b7b8949515195-6" value="Buscar Blogs" style="text;html=1;points=[];align=left;verticalAlign=top;spacingTop=-4;fontSize=14;fontFamily=Verdana;" parent="1" vertex="1">
          <mxGeometry x="320" y="35" width="60" height="20" as="geometry" />
        </mxCell>
        <mxCell id="677b7b8949515195-9" value="" style="line;strokeWidth=1;html=1;rounded=0;shadow=0;labelBackgroundColor=none;fillColor=none;fontFamily=Verdana;fontSize=14;fontColor=#000000;align=center;comic=1;" parent="1" vertex="1">
          <mxGeometry x="20" y="95" width="1060" height="10" as="geometry" />
        </mxCell>
        <mxCell id="677b7b8949515195-10" value="" style="whiteSpace=wrap;html=1;rounded=0;shadow=0;labelBackgroundColor=none;strokeWidth=1;fillColor=none;fontFamily=Verdana;fontSize=12;align=center;comic=1;" parent="1" vertex="1">
          <mxGeometry x="30" y="125" width="1040" height="50" as="geometry" />
        </mxCell>
        <mxCell id="677b7b8949515195-44" value="Feature 1" style="text;html=1;points=[];align=left;verticalAlign=top;spacingTop=-4;fontSize=14;fontFamily=Verdana;" parent="1" vertex="1">
          <mxGeometry x="280" y="306" width="170" height="20" as="geometry" />
        </mxCell>
        <mxCell id="F0CbB1kp5sL9p8T1bUaQ-2" value="" style="strokeWidth=1;shadow=0;dashed=0;align=center;html=1;shape=mxgraph.mockup.containers.marginRect2;rectMarginLeft=67;strokeColor=#666666;gradientColor=none;fillColor=none;sketch=0;" vertex="1" parent="1">
          <mxGeometry x="-10" y="210" width="1050" height="727" as="geometry" />
        </mxCell>
        <mxCell id="F0CbB1kp5sL9p8T1bUaQ-14" value="" style="rounded=0;whiteSpace=wrap;html=1;shadow=0;sketch=0;fillColor=none;" vertex="1" parent="F0CbB1kp5sL9p8T1bUaQ-2">
          <mxGeometry x="469.098" y="53.5" width="381.40200000000004" height="106.5" as="geometry" />
        </mxCell>
        <mxCell id="F0CbB1kp5sL9p8T1bUaQ-6" value="" style="strokeWidth=1;shadow=0;dashed=0;align=center;html=1;shape=mxgraph.mockup.containers.leftButton;rSize=5;strokeColor=#008cff;fillColor=#008cff;resizeHeight=1;movable=0;deletable=0;" vertex="1" parent="F0CbB1kp5sL9p8T1bUaQ-2">
          <mxGeometry width="7" height="587" relative="1" as="geometry">
            <mxPoint x="60" as="offset" />
          </mxGeometry>
        </mxCell>
        <mxCell id="F0CbB1kp5sL9p8T1bUaQ-11" value="Vista previa blog 2" style="verticalLabelPosition=bottom;shadow=0;dashed=0;align=center;html=1;verticalAlign=top;strokeWidth=1;shape=mxgraph.mockup.graphics.simpleIcon;strokeColor=#999999;rounded=0;labelBackgroundColor=none;fontFamily=Verdana;fontSize=14;fontColor=#000000;comic=1;" vertex="1" parent="F0CbB1kp5sL9p8T1bUaQ-2">
          <mxGeometry x="121.05882352941178" y="208.5" width="302.6470588235295" height="150" as="geometry" />
        </mxCell>
        <mxCell id="F0CbB1kp5sL9p8T1bUaQ-10" value="vista previa blog 3" style="verticalLabelPosition=bottom;shadow=0;dashed=0;align=center;html=1;verticalAlign=top;strokeWidth=1;shape=mxgraph.mockup.graphics.simpleIcon;strokeColor=#999999;rounded=0;labelBackgroundColor=none;fontFamily=Verdana;fontSize=14;fontColor=#000000;comic=1;" vertex="1" parent="F0CbB1kp5sL9p8T1bUaQ-2">
          <mxGeometry x="121.05882352941178" y="403.5" width="302.6470588235295" height="150" as="geometry" />
        </mxCell>
        <mxCell id="677b7b8949515195-16" value="vista previa blog 1" style="verticalLabelPosition=bottom;shadow=0;dashed=0;align=center;html=1;verticalAlign=top;strokeWidth=1;shape=mxgraph.mockup.graphics.simpleIcon;strokeColor=#999999;rounded=0;labelBackgroundColor=none;fontFamily=Verdana;fontSize=14;fontColor=#000000;comic=1;" parent="F0CbB1kp5sL9p8T1bUaQ-2" vertex="1">
          <mxGeometry x="121.05882352941178" y="23.5" width="302.6470588235295" height="150" as="geometry" />
        </mxCell>
        <mxCell id="677b7b8949515195-45" value="Titulo blog 1" style="text;html=1;points=[];align=left;verticalAlign=top;spacingTop=-4;fontSize=14;fontFamily=Verdana;" parent="F0CbB1kp5sL9p8T1bUaQ-2" vertex="1">
          <mxGeometry x="469.1029411764707" y="23.5" width="257.25000000000006" height="20" as="geometry" />
        </mxCell>
        <mxCell id="F0CbB1kp5sL9p8T1bUaQ-12" value="resumen dell blog" style="text;html=1;points=[];align=left;verticalAlign=top;spacingTop=-4;fontSize=14;fontFamily=Verdana;" vertex="1" parent="F0CbB1kp5sL9p8T1bUaQ-2">
          <mxGeometry x="499.36764705882365" y="70" width="257.25000000000006" height="20" as="geometry" />
        </mxCell>
        <mxCell id="F0CbB1kp5sL9p8T1bUaQ-26" value="Titulo blog 2" style="text;html=1;points=[];align=left;verticalAlign=top;spacingTop=-4;fontSize=14;fontFamily=Verdana;" vertex="1" parent="F0CbB1kp5sL9p8T1bUaQ-2">
          <mxGeometry x="484.23529411764713" y="188.5" width="257.25000000000006" height="20" as="geometry" />
        </mxCell>
        <mxCell id="F0CbB1kp5sL9p8T1bUaQ-25" value="Titulo blog 3" style="text;html=1;points=[];align=left;verticalAlign=top;spacingTop=-4;fontSize=14;fontFamily=Verdana;" vertex="1" parent="F0CbB1kp5sL9p8T1bUaQ-2">
          <mxGeometry x="469.1029411764707" y="383.5" width="257.25000000000006" height="20" as="geometry" />
        </mxCell>
        <mxCell id="F0CbB1kp5sL9p8T1bUaQ-28" value="" style="rounded=0;whiteSpace=wrap;html=1;shadow=0;sketch=0;fillColor=none;" vertex="1" parent="F0CbB1kp5sL9p8T1bUaQ-2">
          <mxGeometry x="469.098" y="416.75" width="381.40200000000004" height="106.5" as="geometry" />
        </mxCell>
        <mxCell id="F0CbB1kp5sL9p8T1bUaQ-27" value="" style="rounded=0;whiteSpace=wrap;html=1;shadow=0;sketch=0;fillColor=none;" vertex="1" parent="F0CbB1kp5sL9p8T1bUaQ-2">
          <mxGeometry x="469.098" y="230.25" width="381.40200000000004" height="106.5" as="geometry" />
        </mxCell>
        <mxCell id="F0CbB1kp5sL9p8T1bUaQ-30" value="resumen dell blog" style="text;html=1;points=[];align=left;verticalAlign=top;spacingTop=-4;fontSize=14;fontFamily=Verdana;" vertex="1" parent="F0CbB1kp5sL9p8T1bUaQ-2">
          <mxGeometry x="499.36764705882365" y="460" width="257.25000000000006" height="20" as="geometry" />
        </mxCell>
        <mxCell id="F0CbB1kp5sL9p8T1bUaQ-29" value="resumen dell blog" style="text;html=1;points=[];align=left;verticalAlign=top;spacingTop=-4;fontSize=14;fontFamily=Verdana;" vertex="1" parent="F0CbB1kp5sL9p8T1bUaQ-2">
          <mxGeometry x="499.36764705882365" y="250" width="257.25000000000006" height="20" as="geometry" />
        </mxCell>
        <mxCell id="F0CbB1kp5sL9p8T1bUaQ-45" value="Eliminar" style="strokeWidth=1;shadow=0;dashed=0;align=center;html=1;shape=mxgraph.mockup.buttons.button;mainText=;buttonStyle=round;fontSize=17;fontStyle=1;whiteSpace=wrap;sketch=0;strokeColor=#333333;fontColor=#333333;fillColor=#FFFFFF;" vertex="1" parent="F0CbB1kp5sL9p8T1bUaQ-2">
          <mxGeometry x="861" y="60" width="181" height="30" as="geometry" />
        </mxCell>
        <mxCell id="F0CbB1kp5sL9p8T1bUaQ-47" value="Eliminar" style="strokeWidth=1;shadow=0;dashed=0;align=center;html=1;shape=mxgraph.mockup.buttons.button;mainText=;buttonStyle=round;fontSize=17;fontStyle=1;whiteSpace=wrap;sketch=0;strokeColor=#333333;fontColor=#333333;fillColor=#FFFFFF;" vertex="1" parent="F0CbB1kp5sL9p8T1bUaQ-2">
          <mxGeometry x="861" y="240" width="181" height="30" as="geometry" />
        </mxCell>
        <mxCell id="F0CbB1kp5sL9p8T1bUaQ-46" value="Eliminar" style="strokeWidth=1;shadow=0;dashed=0;align=center;html=1;shape=mxgraph.mockup.buttons.button;mainText=;buttonStyle=round;fontSize=17;fontStyle=1;whiteSpace=wrap;sketch=0;strokeColor=#333333;fontColor=#333333;fillColor=#FFFFFF;" vertex="1" parent="F0CbB1kp5sL9p8T1bUaQ-2">
          <mxGeometry x="861" y="430" width="181" height="30" as="geometry" />
        </mxCell>
        <mxCell id="F0CbB1kp5sL9p8T1bUaQ-48" value="Modificar" style="strokeWidth=1;shadow=0;dashed=0;align=center;html=1;shape=mxgraph.mockup.buttons.button;mainText=;buttonStyle=round;fontSize=17;fontStyle=1;whiteSpace=wrap;sketch=0;strokeColor=#333333;fontColor=#333333;fillColor=#FFFFFF;" vertex="1" parent="F0CbB1kp5sL9p8T1bUaQ-2">
          <mxGeometry x="861" y="110" width="181" height="30" as="geometry" />
        </mxCell>
        <mxCell id="F0CbB1kp5sL9p8T1bUaQ-50" value="Modificar" style="strokeWidth=1;shadow=0;dashed=0;align=center;html=1;shape=mxgraph.mockup.buttons.button;mainText=;buttonStyle=round;fontSize=17;fontStyle=1;whiteSpace=wrap;sketch=0;strokeColor=#333333;fontColor=#333333;fillColor=#FFFFFF;" vertex="1" parent="F0CbB1kp5sL9p8T1bUaQ-2">
          <mxGeometry x="861" y="290" width="181" height="30" as="geometry" />
        </mxCell>
        <mxCell id="F0CbB1kp5sL9p8T1bUaQ-49" value="Modificar" style="strokeWidth=1;shadow=0;dashed=0;align=center;html=1;shape=mxgraph.mockup.buttons.button;mainText=;buttonStyle=round;fontSize=17;fontStyle=1;whiteSpace=wrap;sketch=0;strokeColor=#333333;fontColor=#333333;fillColor=#FFFFFF;" vertex="1" parent="F0CbB1kp5sL9p8T1bUaQ-2">
          <mxGeometry x="861" y="480" width="181" height="30" as="geometry" />
        </mxCell>
        <mxCell id="F0CbB1kp5sL9p8T1bUaQ-42" value="Crear blog nuevo" style="strokeWidth=1;shadow=0;dashed=0;align=center;html=1;shape=mxgraph.mockup.buttons.button;mainText=;buttonStyle=round;fontSize=17;fontStyle=1;whiteSpace=wrap;sketch=0;strokeColor=#333333;fontColor=#333333;fillColor=#FFFFFF;" vertex="1" parent="1">
          <mxGeometry x="50" y="135" width="181" height="30" as="geometry" />
        </mxCell>
        <mxCell id="F0CbB1kp5sL9p8T1bUaQ-44" value="Cerrar Sesion" style="strokeWidth=1;shadow=0;dashed=0;align=center;html=1;shape=mxgraph.mockup.buttons.button;mainText=;buttonStyle=round;fontSize=17;fontStyle=1;whiteSpace=wrap;sketch=0;strokeColor=#666666;fontColor=#333333;fillColor=#FFFFFF;" vertex="1" parent="1">
          <mxGeometry x="859" y="25" width="181" height="30" as="geometry" />
        </mxCell>
      </root>
    </mxGraphModel>
  </diagram>
</mxfile>
